<svg xmlns="http://www.w3.org/2000/svg" width="72" height="72" viewBox="0 0 72 72" fill="none">
  <g clipPath="url(#clip0_226_12591)">
    <path d="M55.125 28.125C54.3375 30.7125 52.5375 29.8125 51.75 31.3875C51.3 32.5125 51.6375 34.5375 48.6 35.775C47.7 36.1125 47.1375 36.675 46.6875 37.2375C45.675 38.5875 45.225 40.1625 41.5125 40.275C37.0125 40.3875 28.9125 40.5 25.425 39.0375C24.75 38.7 24.3 38.475 24.075 38.025C22.275 35.4375 23.0625 34.2 21.15 33.1875C19.2375 32.175 18.45 29.925 18.675 27.5625C19.0125 25.3125 16.65 24.3 16.875 20.925C17.1 17.55 19.4625 17.2125 19.8 14.625C20.1375 12.0375 22.1625 10.4625 23.2875 8.66252C24.4125 6.86252 24.525 4.38752 26.4375 3.26252C28.2375 2.13752 29.5875 2.58752 29.8125 2.58752C29.8125 2.58752 32.85 -0.674982 38.475 0.225018C44.1 1.12502 44.1 4.50002 46.9125 5.62502C49.725 6.75002 51.1875 7.76252 51.1875 11.025C51.1875 14.2875 52.2 14.2875 53.325 15.4125C55.8 17.6625 54.675 20.925 54.7875 23.5125C54.9 26.325 55.575 26.775 55.125 28.125Z" fill="#281414"/>
    <path d="M65.6998 67.3875V72H6.2998V67.3875C6.2998 59.0625 7.3123 48.9375 15.6373 47.475C15.7498 47.475 21.5998 46.2375 21.7123 46.125C22.8373 45.9 23.7373 45.5625 24.6373 45C25.6498 44.325 26.4373 43.5375 27.1123 42.525C27.8998 41.2875 28.4623 39.7125 28.4623 38.025V30.15H43.7623V38.025C43.7623 39.6 44.2123 41.175 45.1123 42.525C45.7873 43.5375 46.5748 44.325 47.5873 45C48.4873 45.5625 49.3873 45.9 50.5123 46.125C50.6248 46.125 56.4748 47.3625 56.5873 47.475C64.6873 48.9375 65.6998 59.0625 65.6998 67.3875Z" fill="#FABEA0"/>
    <path d="M43.6501 30.2625V36.225L43.0876 36.7875L42.0751 37.8C39.8251 40.05 37.6876 40.05 36.0001 40.05C34.3126 40.05 32.2876 39.9375 29.9251 37.8L28.9126 36.7875L28.3501 36.225V30.2625H43.6501Z" fill="#E6A082"/>
    <path d="M46.3499 13.725V23.85C46.3499 25.3125 46.2374 26.775 46.0124 28.35C45.6749 30.6 44.6624 32.625 43.0874 34.2L42.0749 35.2125C39.8249 37.4625 37.6874 37.4625 35.9999 37.4625C34.3124 37.4625 32.2874 37.35 29.9249 35.2125L28.9124 34.2C27.3374 32.625 26.2124 30.6 25.9874 28.35C25.7624 26.8875 25.6499 25.425 25.6499 23.85V13.725C25.6499 11.25 26.5499 9 28.0124 7.2C29.0249 5.9625 30.2624 4.95 31.7249 4.275C33.0749 3.7125 34.4249 3.375 35.9999 3.375C36.5624 3.375 37.1249 3.375 37.6874 3.4875C38.5874 3.6 39.4874 3.9375 40.2749 4.275C41.1749 4.725 42.0749 5.2875 42.8624 5.9625C43.3124 6.3 43.6499 6.75 43.9874 7.2C45.4499 9 46.3499 11.25 46.3499 13.725Z" fill="#FFD2B4"/>
    <path d="M46.3499 24.8625V13.725C46.3499 11.25 45.4499 8.8875 43.9874 7.0875C43.6499 6.6375 43.1999 6.3 42.8624 5.85C42.0749 5.175 41.2874 4.6125 40.2749 4.1625C39.4874 3.825 38.5874 3.4875 37.6874 3.375C37.1249 3.4875 36.5624 3.375 35.9999 3.375C34.4249 3.375 33.0749 3.7125 31.7249 4.275C30.2624 4.95 29.0249 5.9625 28.0124 7.2C26.5499 9 25.6499 11.25 25.6499 13.725V23.85C25.6499 25.3125 25.7624 26.775 25.9874 28.35C26.0999 29.25 26.4374 30.15 26.7749 31.05C27.2249 30.2625 27.4499 29.5875 27.5624 28.8C28.0124 25.425 26.4374 23.9625 27.5624 22.275C28.3499 21.15 28.3499 17.8875 28.2374 15.975V15.525V15.8625C28.3499 16.5375 28.5749 17.2125 28.9124 17.8875C31.0499 21.2625 33.8624 20.1375 35.7749 21.6C37.6874 23.0625 38.8124 25.7625 42.4124 24.6375C43.7624 24.3 45.1124 24.4125 46.3499 24.8625Z" fill="#E6A082"/>
    <path d="M55.1251 28.125C54.3376 30.7125 52.5376 29.8125 51.7501 31.3875C51.3001 32.5125 51.6376 34.5375 48.6001 35.775C47.7001 36.1125 47.1376 36.675 46.6876 37.2375C47.4751 35.6625 47.1376 34.2 46.5751 32.2875C46.0126 30.2625 49.7251 28.35 49.5001 25.9875C49.2751 23.625 45.9001 21.15 42.4126 22.275C38.8126 23.4 37.6876 20.7 35.7751 19.2375C33.8626 17.775 31.0501 18.9 28.9126 15.525C28.5751 14.9625 28.3501 14.2875 28.2376 13.5C28.1251 13.05 28.1251 12.7125 28.1251 12.2625V12.15C28.1251 10.0125 27.7876 8.43752 28.1251 7.20002L29.7001 2.58752C29.7001 2.58752 32.7376 -0.674982 38.3626 0.225018C43.9876 1.12502 44.1001 4.50002 46.9126 5.62502C49.7251 6.75002 51.1876 7.76252 51.1876 11.025C51.1876 14.2875 52.2001 14.2875 53.3251 15.4125C55.8001 17.6625 54.6751 20.925 54.7876 23.5125C54.9001 26.325 55.5751 26.775 55.1251 28.125Z" fill="#503C3C"/>
    <path d="M29.7 2.58748L29.025 6.52498L28.125 12.0375V12.2625C28.125 12.375 28.2375 12.825 28.2375 13.5V13.6125C28.35 15.525 28.4625 18.7875 27.5625 19.9125C26.4375 21.4875 28.0125 23.0625 27.5625 26.4375C27.1125 29.8125 21.375 34.425 25.425 39.0375C24.75 38.7 24.3 38.475 24.075 38.025C22.275 35.4375 23.0625 34.2 21.15 33.1875C19.2375 32.175 18.45 29.925 18.675 27.5625C19.0125 25.3125 16.65 24.3 16.875 20.925C17.1 17.55 19.4625 17.2125 19.8 14.625C20.1375 12.0375 22.1625 10.4625 23.2875 8.66248C24.4125 6.86248 24.525 4.38748 26.4375 3.26248C28.125 2.13748 29.475 2.47498 29.7 2.58748Z" fill="#503C3C"/>
    <path d="M26.7749 57.6H47.4749V72H26.7749V57.6Z" fill="#324664"/>
    <path d="M65.6998 67.3875C65.6998 59.0625 64.6873 48.9375 56.3623 47.475C56.2498 47.475 50.3998 46.2375 50.2873 46.125C49.2748 45.9 48.3748 45.5625 47.5873 45.1125L35.9998 70.425L24.2998 45.1125C23.5123 45.5625 22.6123 45.9 21.7123 46.125C21.5998 46.125 15.7498 47.3625 15.6373 47.475C7.4248 48.9375 6.2998 59.0625 6.2998 67.3875V72H65.8123V67.3875H65.6998Z" fill="#1E648C"/>
    <path d="M52.5376 64.2375L47.4751 57.6L52.5376 57.2625L52.0876 46.4625C51.1876 46.2375 50.4001 46.125 50.4001 46.125C49.3876 45.9 48.4876 45.5625 47.7001 45.1125L36.0001 70.425V72H45.2251L52.5376 64.2375ZM19.3501 64.2375L24.4126 57.6L19.3501 57.2625L19.8001 46.4625C20.7001 46.2375 21.4876 46.125 21.4876 46.125C22.5001 45.9 23.4001 45.5625 24.1876 45.1125L36.0001 70.425V72H26.7751L19.3501 64.2375Z" fill="#3C82AA"/>
  </g>
  <defs>
    <clipPath id="clip0_226_12591">
      <rect width="72" height="72" fill="white"/>
    </clipPath>
  </defs>
</svg>