<svg xmlns="http://www.w3.org/2000/svg" width="160" height="169" viewBox="0 0 160 169" fill="none">
  <g clipPath="url(#clip0_226_14175)">
    <path fillRule="evenodd" clipRule="evenodd" d="M4.69321 49.8674L12.8293 42.9876C12.8293 42.9876 8.58179 41.9108 7.05627 41.4322C5.53075 40.9536 0.774719 39.6375 0.834544 39.4879C0.864456 39.3383 4.69321 49.8674 4.69321 49.8674ZM100.352 52.8586L97.2114 40.7442C101.668 42.2099 105.019 42.868 109.386 44.0645L100.352 52.8586ZM125.568 46.7865C125.568 46.7865 131.88 47.5044 133.136 47.624C134.392 47.7437 139.238 48.1325 139.238 48.1325L130.653 57.4352L125.568 46.7865ZM79.8923 43.8252L89.6736 51.5724L94.6091 39.8469C94.5792 39.8169 87.3105 42.0005 79.8923 43.8252ZM52.7022 46.9061L60.4793 56.8669L66.9703 45.919C66.9703 45.8891 58.535 47.1155 52.7022 46.9061ZM24.0164 45.1712L30.7467 56.4481L38.1948 46.6668C38.1948 46.6668 29.8792 46.5771 24.0164 45.1712Z" fill="#D7F0F7"/>
    <path fillRule="evenodd" clipRule="evenodd" d="M117.701 41.851L122.068 28.0615C122.068 28.0615 116.654 30.8433 114.949 31.621C113.274 32.3987 105.945 35.6292 105.945 35.6292L117.701 41.851Z" fill="#D7F0F7"/>
    <path fillRule="evenodd" clipRule="evenodd" d="M141.453 29.6169L143.038 15.1394C143.038 15.1394 140.645 16.9042 138.581 18.2503C136.517 19.6262 131.223 22.9166 131.223 22.9166L141.453 29.6169Z" fill="#D7F0F7"/>
    <path fillRule="evenodd" clipRule="evenodd" d="M73.3402 39.6374C73.6393 39.6374 82.4335 34.1635 82.4335 34.1635C82.4335 34.1635 78.186 31.5013 76.8698 30.8433C75.5537 30.1852 71.9941 27.523 71.9941 27.523L73.3402 39.6374Z" fill="#D7F0F7"/>
    <path d="M0.146484 39.0392C0.146484 39.0392 26.8879 50.675 68.406 45.7395C109.924 40.7741 144.054 14.3617 144.054 14.3617" stroke="#17406C" strokeWidth="0.299121" stroke-miterlimit="22.9256" strokeLinecap="round" strokeLinejoin="round"/>
    <path d="M152.728 48.7307C152.728 48.7307 118.599 48.4914 95.656 40.2058C77.3198 33.5653 66.701 23.8738 53.5098 10.9517" stroke="#17406C" strokeWidth="0.299121" stroke-miterlimit="22.9256" strokeLinecap="round" strokeLinejoin="round"/>
    <path fillRule="evenodd" clipRule="evenodd" d="M137.383 103.5C137.383 103.5 139.357 99.342 139.207 97.4277C139.058 95.5133 138.22 94.2271 138.4 92.193C138.579 90.159 140.374 89.9795 140.464 90.0992C140.583 90.2188 144.263 87.108 144.263 87.108L152.997 95.9919C152.997 95.9919 150.694 100.897 148.181 101.914C145.668 102.931 145.1 107.448 145.1 107.448L137.383 103.5Z" fill="white" stroke="#17406C" strokeWidth="0.299121" stroke-miterlimit="22.9256" strokeLinecap="round" strokeLinejoin="round"/>
    <path fillRule="evenodd" clipRule="evenodd" d="M43.4596 52.1108C43.4596 52.1108 44.8655 47.953 46.6901 45.2011C48.5147 42.4193 49.3224 40.0263 48.9335 39.458C48.5447 38.8896 47.1687 39.9665 46.3012 41.3723C45.4338 42.7483 43.9382 43.4961 43.9382 43.4961C43.9382 43.4961 45.0748 36.377 45.1347 34.5225C45.2244 32.6679 43.4596 34.014 43.4596 34.014C43.4596 34.014 43.1306 32.8175 42.4127 32.8773C41.6948 32.9072 41.3059 34.014 41.3059 34.014C41.3059 34.014 40.3786 32.967 39.571 34.0439C38.7634 35.1207 38.0455 36.736 38.0455 36.736C38.0455 36.736 36.9387 35.8386 35.6525 39.1888C34.3962 42.5688 34.127 47.8932 33.8279 49.6281C33.5587 51.363 33.0801 53.3372 33.0801 53.3372L43.4596 52.1108Z" fill="white" stroke="#17406C" strokeWidth="0.299121" stroke-miterlimit="22.9256" strokeLinecap="round" strokeLinejoin="round"/>
    <path d="M38.582 48.6709C38.582 48.6709 39.5093 47.0257 40.975 45.7096C42.4407 44.4234 43.8167 43.4662 43.8167 43.4662" stroke="#17406C" strokeWidth="0.299121" stroke-miterlimit="22.9256" strokeLinecap="round" strokeLinejoin="round"/>
    <path d="M36.8164 44.214C36.8164 44.214 37.1454 41.6416 37.4745 39.8468C37.8334 38.0521 38.0727 37.2146 38.0727 36.9753" stroke="#17406C" strokeWidth="0.299121" stroke-miterlimit="22.9256" strokeLinecap="round" strokeLinejoin="round"/>
    <path d="M39.3594 43.167C39.7183 40.116 40.4661 36.9453 41.3336 33.984" stroke="#17406C" strokeWidth="0.299121" stroke-miterlimit="22.9256" strokeLinecap="round" strokeLinejoin="round"/>
    <path d="M41.752 42.0304C41.752 42.0304 41.9613 40.5946 42.5297 38.3512C43.098 36.0779 43.427 34.2233 43.427 34.2233" stroke="#17406C" strokeWidth="0.299121" stroke-miterlimit="22.9256" strokeLinecap="round" strokeLinejoin="round"/>
    <path fillRule="evenodd" clipRule="evenodd" d="M72.8316 110.26C72.8316 110.26 66.3705 110.559 59.1019 101.077C51.8332 91.6247 47.6754 83.5485 47.6754 83.5485L45.7013 51.4826C45.7013 51.4826 39.7786 49.7477 35.6209 50.7049C31.4332 51.6621 28.9505 53.756 28.9505 53.756C28.9505 53.756 28.2625 89.1121 29.3991 93.6588C30.5657 98.2054 48.2438 126.054 48.2438 126.054C48.2438 126.054 46.808 149.804 45.8209 154.949C44.8338 160.094 43.3382 168.2 43.3382 168.2H106.872L102.953 143.403C102.953 143.403 127.571 149.056 132.716 141.159C137.861 133.262 148.689 106.401 148.689 106.401L134.271 100.748L121.768 125.934C121.768 125.934 108.726 123.062 101.188 119.712C93.6803 116.422 89.0738 112.892 72.8316 110.26Z" fill="#17406C" stroke="#17406C" strokeWidth="0.299121" stroke-miterlimit="22.9256" strokeLinecap="round" strokeLinejoin="round"/>
    <path d="M75.8516 166.584C75.8516 166.584 77.2574 138.736 77.8258 134.279C78.3642 129.822 79.0821 124.349 79.0522 124.079" stroke="white" strokeWidth="0.299121" stroke-miterlimit="22.9256" strokeLinecap="round" strokeLinejoin="round"/>
    <path fillRule="evenodd" clipRule="evenodd" d="M75.6431 108.555C75.6431 108.555 72.0836 107.598 70.0196 111.008C67.9557 114.418 64.127 124.737 64.127 124.737C64.127 124.737 69.3018 123.062 73.639 122.943C78.0062 122.823 79.1428 122.793 79.1428 122.793C79.1428 122.793 85.2748 126.173 88.2062 128.088C91.1376 130.032 92.3042 130.78 92.3042 130.78C92.3042 130.78 92.3341 117.23 90.8086 114.119C89.2831 111.008 84.8262 110.2 84.8262 110.2L75.6431 108.555Z" fill="#1C89C1" stroke="#17406C" strokeWidth="0.299121" stroke-miterlimit="22.9256" strokeLinecap="round" strokeLinejoin="round"/>
    <path fillRule="evenodd" clipRule="evenodd" d="M89.9119 85.9414C89.9119 85.9414 83.75 81.7238 77.0497 82.5314C70.3494 83.339 70.7084 85.8218 70.14 92.8511C69.5717 99.8805 70.7084 104.607 72.4134 107.149C74.1183 109.692 76.2122 109.901 76.2122 109.901L75.5242 112.414L79.1137 122.793C79.1137 122.793 81.5964 119.832 83.4808 116.96C85.3653 114.119 85.7242 113.461 85.7242 113.461L88.207 103.619C88.207 103.619 90.9888 104.008 92.2152 101.107C93.4416 98.2054 91.8263 96.2013 91.8263 96.2013C91.8263 96.2013 94.7876 89.9795 89.9119 85.9414Z" fill="white"/>
    <path fillRule="evenodd" clipRule="evenodd" d="M70.4982 88.6335C73.8484 88.3643 78.066 87.4669 78.066 87.4669C78.066 87.4669 77.5575 89.1719 80.3991 89.0822C83.2408 88.9924 86.3816 90.0094 86.8602 91.3854C87.3388 92.7614 86.5012 94.1074 86.7704 94.9749C87.0396 95.8722 87.2191 97.1884 87.3088 98.5344C87.3986 99.8505 87.9071 98.8036 88.7745 97.3379C89.642 95.9021 90.8385 95.3637 91.8256 96.2312C91.8256 96.2312 93.4408 98.2054 92.2144 101.137C90.988 104.038 88.2062 103.649 88.2062 103.649L87.249 107.478C88.7745 106.88 90.0907 106.252 92.6033 102.632C95.1458 99.013 97.5986 90.5778 97.1499 88.9027C96.7312 87.2276 97.4491 84.5954 92.0649 81.1854C86.7106 77.7455 77.9763 77.3566 73.3399 77.6258C68.7334 77.9249 65.6226 76.0704 65.802 77.6557C66.0114 79.2411 68.6138 80.5572 68.6138 80.5572C68.6138 80.5572 63.439 80.3179 63.4689 82.4118C63.4988 84.5056 69.1522 85.0141 69.1522 85.0141C69.1522 85.0141 66.0712 86.5097 66.5498 87.8259C67.1182 89.2018 70.4982 88.6335 70.4982 88.6335Z" fill="#17406C" stroke="#17406C" strokeWidth="0.299121" stroke-miterlimit="22.9256" strokeLinecap="round" strokeLinejoin="round"/>
    <path d="M88.9831 102.573C88.9831 102.573 88.4148 100.838 89.4019 99.1925C90.389 97.5473 91.2864 97.2183 91.2864 97.2183" stroke="#17406C" strokeWidth="0.299121" stroke-miterlimit="22.9256" strokeLinecap="round" strokeLinejoin="round"/>
    <path d="M90.66 101.077L89.4336 99.1925" stroke="#17406C" strokeWidth="0.299121" stroke-miterlimit="22.9256" strokeLinecap="round" strokeLinejoin="round"/>
    <path d="M76.213 94.5561C76.213 94.5561 75.3754 96.8593 74.8969 97.7866C74.4482 98.7139 74.1191 99.342 74.1191 99.342L76.2728 99.9104" stroke="#17406C" strokeWidth="0.299121" stroke-miterlimit="22.9256" strokeLinecap="round" strokeLinejoin="round"/>
    <path d="M79.4121 96.2611C79.4121 96.2611 80.1898 93.9878 81.4162 94.4663C82.6426 94.9449 82.5529 96.7696 82.5529 96.7696" stroke="#17406C" strokeWidth="0.299121" stroke-miterlimit="22.9256" strokeLinecap="round" strokeLinejoin="round"/>
    <path d="M71.4258 95.0945C71.4258 95.0945 71.8446 93.2101 73.0111 93.5092C74.1777 93.8083 74.2076 95.3338 74.2076 95.3338" stroke="#17406C" strokeWidth="0.299121" stroke-miterlimit="22.9256" strokeLinecap="round" strokeLinejoin="round"/>
    <path fillRule="evenodd" clipRule="evenodd" d="M75.6445 102.184C75.6445 102.184 76.841 102.273 78.2469 102.064C79.6528 101.855 80.9988 101.645 80.9988 101.645C80.9988 101.645 81.0287 104.816 78.546 104.876C76.0334 104.936 75.6445 102.184 75.6445 102.184Z" fill="white" stroke="#17406C" strokeWidth="0.299121" stroke-miterlimit="22.9256" strokeLinecap="round" strokeLinejoin="round"/>
    <path d="M71.7227 91.4453C71.7227 91.4453 72.4705 91.4453 72.979 91.5051C73.4875 91.5948 73.8464 91.6845 73.8464 91.6845" stroke="#17406C" strokeWidth="0.299121" stroke-miterlimit="22.9256" strokeLinecap="round" strokeLinejoin="round"/>
    <path d="M79.8594 92.3127C79.8594 92.3127 81.0259 92.3725 81.6242 92.4622C82.2224 92.5221 82.7309 92.7315 82.7309 92.7315" stroke="#17406C" strokeWidth="0.299121" stroke-miterlimit="22.9256" strokeLinecap="round" strokeLinejoin="round"/>
    <path d="M85.6649 106.222C83.9898 109.333 80.849 110.32 77.0801 109.961" stroke="#17406C" strokeWidth="0.299121" stroke-miterlimit="22.9256" strokeLinecap="round" strokeLinejoin="round"/>
    <path d="M72.2344 85.3731C72.2344 85.3731 75.076 84.2364 76.9605 84.1766C78.845 84.0869 80.52 84.2962 80.52 84.2962" stroke="white" strokeWidth="0.299121" stroke-miterlimit="22.9256" strokeLinecap="round" strokeLinejoin="round"/>
    <path d="M72.2637 81.7537C72.2637 81.7537 76.3915 82.5015 78.2461 82.3221" stroke="white" strokeWidth="0.299121" stroke-miterlimit="22.9256" strokeLinecap="round" strokeLinejoin="round"/>
    <path d="M76.9277 80.647C78.0046 80.5572 79.0216 80.7367 79.0216 80.7367" stroke="white" strokeWidth="0.299121" stroke-miterlimit="22.9256" strokeLinecap="round" strokeLinejoin="round"/>
    <path d="M90.4811 91.2358C90.4811 91.2358 90.6905 92.4323 90.6306 92.8511C90.5708 93.2699 90.4512 93.4493 90.4512 93.4493" stroke="white" strokeWidth="0.299121" stroke-miterlimit="22.9256" strokeLinecap="round" strokeLinejoin="round"/>
    <path d="M92.125 94.3766C92.5139 93.2998 92.6335 91.4453 92.5737 90.2787" stroke="white" strokeWidth="0.299121" stroke-miterlimit="22.9256" strokeLinecap="round" strokeLinejoin="round"/>
    <path d="M94.1001 91.505C94.1001 91.505 94.2497 90.7572 94.1599 89.7402C94.0702 88.7531 93.9805 88.3942 93.9805 88.3942" stroke="white" strokeWidth="0.299121" stroke-miterlimit="22.9256" strokeLinecap="round" strokeLinejoin="round"/>
    <path d="M70.7396 87.1678C70.4405 88.6036 70.3508 90.488 70.1713 92.881C69.6029 99.9103 70.7396 104.636 72.4446 107.179C74.1496 109.722 76.2434 109.931 76.2434 109.931L75.5555 112.444L79.1449 122.823C79.1449 122.823 81.6276 119.862 83.5121 116.99C85.3966 114.149 85.7555 113.49 85.7555 113.49L88.2382 103.649C88.2382 103.649 91.02 104.038 92.2464 101.137C93.4728 98.2353 91.8576 96.2312 91.8576 96.2312" stroke="#17406C" strokeWidth="0.299121" stroke-miterlimit="22.9256" strokeLinecap="round" strokeLinejoin="round"/>
    <path d="M31.373 56.3882C31.373 56.3882 34.9027 54.5935 38.2229 54.1448C41.5731 53.6961 43.8763 53.9354 43.8763 53.9354" stroke="#1C89C1" strokeWidth="0.299121" stroke-miterlimit="22.9256" strokeLinecap="round" strokeLinejoin="round"/>
    <path d="M134.689 104.876C134.689 104.876 139.416 106.97 141.958 107.867C144.501 108.764 146.355 109.422 146.355 109.422" stroke="#1C89C1" strokeWidth="0.299121" stroke-miterlimit="22.9256" strokeLinecap="round" strokeLinejoin="round"/>
    <path d="M74.6875 110.32L75.555 112.414" stroke="#17406C" strokeWidth="0.299121" stroke-miterlimit="22.9256" strokeLinecap="round" strokeLinejoin="round"/>
    <path d="M86.741 112.055L85.7539 113.49" stroke="#17406C" strokeWidth="0.299121" stroke-miterlimit="22.9256" strokeLinecap="round" strokeLinejoin="round"/>
    <path d="M103.102 141.967L102.234 134.758" stroke="white" strokeWidth="0.299121" stroke-miterlimit="22.9256" strokeLinecap="round" strokeLinejoin="round"/>
    <path d="M49.082 124.438C49.082 124.438 50.0691 120.819 49.8897 117.977C49.7102 115.166 49.082 113.431 49.082 113.431" stroke="white" strokeWidth="0.299121" stroke-miterlimit="22.9256" strokeLinecap="round" strokeLinejoin="round"/>
    <path d="M124.338 129.583L122.424 126.801" stroke="white" strokeWidth="0.299121" stroke-miterlimit="22.9256" strokeLinecap="round" strokeLinejoin="round"/>
    <path d="M68.1953 122.135C68.1953 122.135 70.4985 121.387 72.9214 121.298C75.3443 121.178 76.9596 121.417 76.9596 121.417" stroke="white" strokeWidth="0.299121" stroke-miterlimit="22.9256" strokeLinecap="round" strokeLinejoin="round"/>
    <path d="M82.791 122.614C82.791 122.614 84.5858 123.691 86.6497 125.066C88.6837 126.442 90.3289 127.759 90.3289 127.759" stroke="white" strokeWidth="0.299121" stroke-miterlimit="22.9256" strokeLinecap="round" strokeLinejoin="round"/>
    <path fillRule="evenodd" clipRule="evenodd" d="M136.815 76.1302C136.815 76.1302 134.482 76.3695 133.285 78.583C132.089 80.7965 132.537 82.4118 132.537 82.4118C132.537 82.4118 142.977 92.2529 146.806 96.65C150.634 101.047 155.091 106.072 155.091 106.072C155.091 106.072 156.946 106.671 158.83 104.278C160.715 101.885 159.399 99.0729 159.399 99.0729C159.399 99.0729 145.609 85.5526 143.725 83.8476C141.81 82.1127 136.815 76.1302 136.815 76.1302Z" fill="white" stroke="#17406C" strokeWidth="0.299121" stroke-miterlimit="22.9256" strokeLinecap="round" strokeLinejoin="round"/>
    <path fillRule="evenodd" clipRule="evenodd" d="M138.938 89.1719C138.938 89.1719 139.057 87.7062 140.972 85.5227C142.886 83.3391 144.112 83.2194 144.112 83.2194L153.415 92.552C153.415 92.552 151.022 94.1074 149.915 95.603C148.809 97.0986 148.21 98.5943 148.21 98.5943L138.938 89.1719Z" fill="#1C89C1"/>
    <path d="M155.271 105.235C155.271 105.235 154.703 104.008 155.451 101.885C156.199 99.7608 159.04 99.2224 159.04 99.2224" stroke="#17406C" strokeWidth="0.299121" stroke-miterlimit="22.9256" strokeLinecap="round" strokeLinejoin="round"/>
    <path d="M159.039 99.2224C159.069 100.09 159.248 102.154 158.261 103.5C157.244 104.846 156.078 105.295 156.018 104.158C155.958 103.021 157.065 100.598 157.693 100.957C158.291 101.316 158.082 102.662 158.082 102.662L156.646 101.885" stroke="#17406C" strokeWidth="0.299121" stroke-miterlimit="22.9256" strokeLinecap="round" strokeLinejoin="round"/>
    <path d="M156.766 100.209L157.663 100.987" stroke="#17406C" strokeWidth="0.299121" stroke-miterlimit="22.9256" strokeLinecap="round" strokeLinejoin="round"/>
    <path fillRule="evenodd" clipRule="evenodd" d="M154.103 93.8681C154.103 93.8681 154.671 91.5649 154.103 90.3086C153.534 89.0523 152.697 89.4411 152.697 89.4411C152.697 89.4411 152.936 88.7233 152.278 87.9455C151.62 87.1678 150.663 87.5567 150.663 87.5567C150.663 87.5567 150.364 86.3602 149.676 85.9414C148.988 85.5227 147.851 85.7919 147.851 85.7919C147.851 85.7919 147.821 84.3262 146.595 84.1168C145.368 83.9074 144.651 85.3731 143.663 87.5866C142.676 89.8001 142.916 90.7872 143.484 91.1162C144.022 91.4453 144.68 90.9367 144.68 90.9367C144.232 92.3426 145.997 92.8511 146.804 92.0734C146.804 92.0734 146.565 93.3297 147.253 93.6288C147.941 93.928 148.479 93.3596 148.479 93.3596C148.3 96.7696 151.77 93.4494 152.577 92.3725L154.103 93.8681Z" fill="white" stroke="#17406C" strokeWidth="0.299121" stroke-miterlimit="22.9256" strokeLinecap="round" strokeLinejoin="round"/>
    <path fillRule="evenodd" clipRule="evenodd" d="M143.424 90.4581C144.171 90.5778 146.176 91.3256 146.235 91.5948C146.295 91.8341 145.218 93.3596 143.723 93.1502C142.257 92.9109 138.398 92.2828 138.398 92.2828C138.668 88.2746 141.719 90.159 143.424 90.4581Z" fill="white"/>
    <path d="M145.098 90.4582C145.487 88.0951 146.623 86.8687 147.85 85.8218" stroke="#17406C" strokeWidth="0.299121" stroke-miterlimit="22.9256" strokeLinecap="round" strokeLinejoin="round"/>
    <path d="M146.953 91.2059C146.953 91.2059 147.581 89.471 148.628 88.5437C149.675 87.6464 150.662 87.5566 150.662 87.5566" stroke="#17406C" strokeWidth="0.299121" stroke-miterlimit="22.9256" strokeLinecap="round" strokeLinejoin="round"/>
    <path d="M148.928 92.7613C148.928 92.7613 150.034 91.3555 150.752 90.6077C151.47 89.8599 152.667 89.471 152.667 89.471" stroke="#17406C" strokeWidth="0.299121" stroke-miterlimit="22.9256" strokeLinecap="round" strokeLinejoin="round"/>
    <path d="M153.713 91.535L152.547 92.3725" stroke="#17406C" strokeWidth="0.299121" stroke-miterlimit="22.9256" strokeLinecap="round" strokeLinejoin="round"/>
    <path d="M138.398 92.2828C138.668 88.3045 141.719 90.189 143.424 90.4582C144.171 90.5778 146.176 91.3256 146.235 91.5948C146.295 91.8341 145.218 93.3596 143.723 93.1503C143.125 93.0605 142.078 92.881 141.091 92.7315" stroke="#17406C" strokeWidth="0.299121" stroke-miterlimit="22.9256" strokeLinecap="round" strokeLinejoin="round"/>
    <path d="M144.533 98.9233C144.204 96.9192 143.905 94.5262 142.529 92.9409" stroke="#17406C" strokeWidth="0.299121" stroke-miterlimit="22.9256" strokeLinecap="round" strokeLinejoin="round"/>
    <path fillRule="evenodd" clipRule="evenodd" d="M105.676 52.2604L101.967 77.7455L121.649 73.2288L124.999 47.1155L105.676 52.2604Z" fill="white" stroke="#17406C" strokeWidth="0.299121" stroke-miterlimit="22.9256" strokeLinecap="round" strokeLinejoin="round"/>
    <path d="M109.623 56.4779L118.567 54.0551" stroke="#1C89C1" strokeWidth="0.299121" stroke-miterlimit="22.9256" strokeLinecap="round" strokeLinejoin="round"/>
    <path d="M109.117 60.0076L118.091 57.5847" stroke="#17406C" strokeWidth="0.299121" stroke-miterlimit="22.9256" strokeLinecap="round" strokeLinejoin="round"/>
    <path d="M108.787 62.251L117.761 59.8281" stroke="#17406C" strokeWidth="0.299121" stroke-miterlimit="22.9256" strokeLinecap="round" strokeLinejoin="round"/>
    <path d="M109.266 64.8534L116.774 62.8193" stroke="#17406C" strokeWidth="0.299121" stroke-miterlimit="22.9256" strokeLinecap="round" strokeLinejoin="round"/>
    <path d="M108.367 68.383L110.132 71.6434L116.085 66.4387" stroke="#1C89C1" strokeWidth="0.299121" stroke-miterlimit="22.9256" strokeLinecap="round" strokeLinejoin="round"/>
    <path fillRule="evenodd" clipRule="evenodd" d="M76.0938 54.1747L72.2949 59.4094L74.7776 60.7853L78.7559 55.5507L76.0938 54.1747Z" fill="#D7F0F7"/>
    <path fillRule="evenodd" clipRule="evenodd" d="M56.7402 32.1295L60.5092 37.8427L62.932 35.1506L59.5819 30.1852L56.7402 32.1295Z" fill="#1C89C1"/>
    <path fillRule="evenodd" clipRule="evenodd" d="M142.38 41.0732L140.824 42.7782L143.636 45.0216L144.713 43.3466L142.38 41.0732Z" fill="#D7F0F7"/>
    <path fillRule="evenodd" clipRule="evenodd" d="M148.391 59.9478L150.455 57.9437L150.964 61.3238L152.818 62.9091L150.695 63.8364L149.887 66.9473L148.451 64.8833L145.221 65.5115L146.716 62.4904L145.849 59.3197L148.391 59.9478Z" fill="#1C89C1"/>
    <path fillRule="evenodd" clipRule="evenodd" d="M23.5963 132.814L21.5623 130.84L21.0239 134.22L19.1992 135.805L21.323 136.702L22.1306 139.843L23.5365 137.779L26.767 138.377L25.3013 135.386L26.1687 132.215L23.5963 132.814Z" fill="#1C89C1"/>
    <path fillRule="evenodd" clipRule="evenodd" d="M9.06055 105.564C9.06055 105.564 9.89809 107.807 11.4236 109.333C12.9491 110.858 13.7568 110.948 13.7568 110.948L15.1028 108.525C15.1028 108.525 13.0389 106.88 12.3509 105.773C11.6928 104.666 11.2441 103.59 11.2441 103.59L9.06055 105.564Z" fill="#17406C"/>
    <path fillRule="evenodd" clipRule="evenodd" d="M22.1621 157.641L22.3117 162.636L25.1832 161.799L24.6448 157.88L22.1621 157.641Z" fill="#17406C"/>
    <path fillRule="evenodd" clipRule="evenodd" d="M121.619 154.47L119.555 157.581C119.555 157.581 121.349 159.136 121.439 158.957C121.529 158.777 123.054 155.816 123.054 155.816L121.619 154.47Z" fill="#D7F0F7"/>
    <path fillRule="evenodd" clipRule="evenodd" d="M141.482 151.03C141.482 151.03 143.576 149.535 144.085 148.847C144.563 148.159 144.982 147.381 144.982 147.381L147.943 149.265C147.943 149.265 147.136 151.06 146.089 151.987C145.042 152.915 144.324 153.034 144.324 153.034L141.482 151.03Z" fill="#1C89C1"/>
    <path fillRule="evenodd" clipRule="evenodd" d="M115.667 93.3297C115.667 93.3297 115.996 94.3766 116.864 95.3338C117.731 96.291 118.389 96.7098 118.389 96.7098L116.594 99.4318C116.594 99.4318 114.77 98.2353 114.231 97.5174C113.693 96.8294 113.334 95.6928 113.334 95.6928L115.667 93.3297Z" fill="#1C89C1"/>
    <path fillRule="evenodd" clipRule="evenodd" d="M139.178 14.0626C139.178 14.0626 139.089 15.4684 138.371 16.2162C137.653 16.964 136.965 17.323 136.965 17.323L138.7 18.0409C138.7 18.0409 139.388 17.8016 140.106 16.6948C140.824 15.5582 140.853 15.4385 140.853 15.4385L139.178 14.0626Z" fill="#D7F0F7"/>
    <path fillRule="evenodd" clipRule="evenodd" d="M90.6604 17.4127C90.6604 17.4127 90.4809 18.8186 89.5835 19.716C88.6862 20.6133 88.6562 20.6432 88.6562 20.6432L90.7202 21.2116C90.7202 21.2116 91.5876 20.6731 92.0662 19.4168C92.5448 18.1904 92.6944 17.6819 92.6944 17.6819L90.6604 17.4127Z" fill="#17406C"/>
    <path fillRule="evenodd" clipRule="evenodd" d="M9.03125 21.7799L9.24063 21.7201L12.2019 20.8227L12.4412 15.4684L9.77905 16.5154C9.74914 16.5453 9.1509 21.75 9.03125 21.7799Z" fill="#1C89C1"/>
    <path d="M17.736 88.8429C17.736 88.8429 12.6509 83.9971 11.6339 77.8352C10.587 71.6733 16.4199 72.5408 17.5266 76.1003C18.6334 79.6898 11.2451 81.6341 8.46324 73.8569C5.68141 66.0797 10.8861 59.9179 13.997 61.9818C17.1078 64.0457 17.048 70.1179 12.4416 67.5155C7.83509 64.9132 8.1043 57.136 9.89902 52.3501C11.6938 47.5641 16.2404 48.7606 16.2404 48.7606" stroke="#17406C" strokeWidth="0.299121" stroke-miterlimit="22.9256" strokeLinecap="round" strokeLinejoin="round"/>
    <path d="M148.629 144.719C148.629 144.719 154.611 140.98 155.898 136.583C157.154 132.186 153.834 129.015 150.424 132.485C147.014 135.955 155.329 138.946 158.021 131.557C160.743 124.169 152.039 120.819 152.039 120.819" stroke="#1C89C1" strokeWidth="0.299121" stroke-miterlimit="22.9256" strokeLinecap="round" strokeLinejoin="round"/>
    <path fillRule="evenodd" clipRule="evenodd" d="M26.6497 23.126C26.8292 22.8867 27.1582 22.7969 27.3975 22.9764C27.6368 23.1559 27.7266 23.4849 27.5471 23.7242C27.5471 23.7242 26.2908 25.5488 23.838 29.4972C22.0134 32.4585 18.9922 33.4456 17.377 33.7448C16.5394 34.1635 15.0438 35.0011 15.0438 35.0011C15.0438 35.0011 14.2661 34.8515 13.8174 33.7448C13.3687 32.638 14.3858 31.7706 14.3858 31.7706C14.3858 31.7706 16.9881 32.3389 17.7359 32.5782C19.2315 32.1893 21.4749 31.2621 22.9107 28.9289C25.3336 25.0403 26.6198 23.126 26.6497 23.126Z" fill="#1C89C1"/>
    <path fillRule="evenodd" clipRule="evenodd" d="M46.1817 23.3054L39.4814 27.523L38.0755 23.0661L22.8203 25.1001L44.6263 0.96106L74.5683 5.05902L62.6334 12.567L63.4709 15.3787L46.1817 23.3054Z" fill="#17406C" stroke="#17406C" strokeWidth="0.299121" stroke-miterlimit="22.9256"/>
    <path fillRule="evenodd" clipRule="evenodd" d="M49.8908 18.1007C56.5014 14.7206 62.783 13.9728 63.441 15.289C64.0991 16.5752 59.2832 20.374 52.6427 23.7541C46.0322 27.1342 40.1096 28.8392 39.4515 27.523C38.8233 26.2368 43.2802 21.4808 49.8908 18.1007Z" fill="#1C89C1"/>
    <path d="M37.6581 21.9295L37 20.1348C41.5167 10.6825 51.7467 7.4221 61.3784 9.18692L62.3954 11.9987" stroke="white" strokeWidth="0.299121" stroke-miterlimit="22.9256"/>
    <path fillRule="evenodd" clipRule="evenodd" d="M117.252 16.0367L120.423 18.0408C120.423 18.0408 121.948 16.2162 121.769 16.1265C121.589 16.0367 118.598 14.601 118.598 14.601L117.252 16.0367Z" fill="#D7F0F7"/>
    <path d="M104.302 113.132C104.302 113.132 102.657 108.884 103.704 106.162C104.751 103.41 107.682 103.081 108.101 106.162C108.52 109.243 103.106 107.598 104.542 102.752C105.977 97.9062 111.75 99.5514 111.75 99.5514" stroke="#17406C" strokeWidth="0.299121" stroke-miterlimit="22.9256" strokeLinecap="round" strokeLinejoin="round"/>
  </g>
  <defs>
    <clipPath id="clip0_226_14175">
      <rect width="160" height="167.598" fill="white" transform="translate(0 0.811462)"/>
    </clipPath>
  </defs>
</svg>