<svg xmlns="http://www.w3.org/2000/svg" width="160" height="157" viewBox="0 0 160 157" fill="none">
  <g clipPath="url(#clip0_226_14060)">
    <path d="M26.6807 30.9806L7.96816 17.9313C7.67049 17.7229 7.61095 17.3024 7.84909 17.0233L15.1272 8.43916C15.3393 8.18614 15.7635 8.11916 16.0426 8.40567L31.983 24.7294C32.2063 24.9601 32.2175 25.321 32.0128 25.5629L27.5105 30.8764C27.3058 31.1182 26.9449 31.1666 26.6807 30.9806ZM9.237 17.3024L26.93 29.641L30.6993 25.1908L15.6296 9.76009L9.237 17.3024Z" fill="#D53939"/>
    <path d="M30.905 35.6094C27.6046 32.8113 29.2976 27.3564 33.666 26.9955C38.0306 26.6531 40.598 31.7396 37.7999 35.0401C36.0362 37.1201 32.9478 37.3396 30.905 35.6094ZM33.7664 28.2308C30.4994 28.5024 29.2455 32.5769 31.705 34.6643C33.2269 35.948 35.5339 35.7955 36.8548 34.2364C38.9608 31.7545 36.9999 27.9629 33.7664 28.2308Z" fill="#D53939"/>
    <path d="M38.3356 20.0559L31.7756 3.29315C31.6416 2.95455 31.8314 2.57129 32.1812 2.47082L40.7207 0.0261734C41.0705 -0.0780127 41.4351 0.148964 41.5021 0.509894L44.81 18.2066C44.8695 18.5192 44.6798 18.828 44.3709 18.9173L39.0872 20.428C38.7746 20.5173 38.4509 20.3536 38.3356 20.0559ZM33.1784 3.47548L39.2844 19.0811L43.4816 17.8792L40.4044 1.40664L33.1784 3.47548Z" fill="#D53939"/>
    <path d="M39.0804 24.9341C38.4702 22.8095 39.6981 20.5992 41.8153 19.9927C43.9325 19.3862 46.1502 20.6067 46.7567 22.735C47.3632 24.8523 46.1353 27.0662 44.0144 27.6727C41.886 28.283 39.6832 27.0439 39.0804 24.9341ZM42.1576 21.1871C40.699 21.6039 39.8544 23.1332 40.2711 24.5955C40.6879 26.043 42.1948 26.9025 43.672 26.482C45.1306 26.0653 45.9827 24.5397 45.566 23.0774C45.1492 21.6225 43.6311 20.763 42.1576 21.1871Z" fill="#D53939"/>
    <path d="M41.2132 132.666C41.269 133.008 41.0457 133.325 40.7034 133.384C-0.930069 140.67 1.03458 140.342 0.896907 140.342C0.599233 140.342 0.338767 140.13 0.282953 139.833C0.22714 139.49 0.450395 139.17 0.792721 139.114C53.3992 129.901 25.1909 134.843 40.4951 132.164C40.8374 132.108 41.1537 132.331 41.2132 132.666Z" fill="#78A9FF"/>
    <path d="M121.261 136.718H121.253C120.911 136.718 120.632 136.439 120.632 136.097C120.632 135.755 120.911 135.475 121.253 135.475C121.596 135.475 121.878 135.755 121.878 136.097C121.878 136.439 121.603 136.718 121.261 136.718Z" fill="#78A9FF"/>
    <path d="M117.02 136.294L96.6445 134.244C96.3282 134.218 96.0752 133.95 96.0752 133.626C96.0752 133.28 96.3617 132.975 96.7598 133.008L117.136 135.059C117.452 135.085 117.705 135.353 117.705 135.676C117.709 136.022 117.422 136.328 117.02 136.294Z" fill="#78A9FF"/>
    <path d="M1.42397 140.514L2.68536 145.995C2.7635 146.329 2.55513 146.661 2.22024 146.739C1.88908 146.817 1.5542 146.609 1.47606 146.274L0.0137331 139.922C-0.0830111 139.509 0.255594 139.133 0.664896 139.163C76.9477 151.494 72.0695 150.705 72.2779 150.739C74.0379 150.292 62.957 153.109 108.639 141.5C108.977 141.425 109.305 141.637 109.379 141.972C109.454 142.307 109.242 142.638 108.907 142.713C63.1319 154.344 74.2202 151.528 72.4602 151.974C72.2184 152.037 75.3998 152.488 1.42397 140.514Z" fill="#78A9FF"/>
    <path d="M72.0818 156.35L71.9144 151.669C71.9032 151.326 72.1711 151.04 72.5097 151.025C72.8595 150.992 73.1386 151.278 73.1535 151.62L73.3209 156.301C73.3321 156.644 73.0642 156.93 72.7256 156.945C72.4167 156.971 72.0967 156.714 72.0818 156.35Z" fill="#78A9FF"/>
    <path d="M99.2041 131.84L64.7222 121.663C64.5659 121.619 64.3985 121.634 64.2571 121.708C52.8859 127.635 40.2571 132.532 28.1008 136.454C27.5092 136.648 27.539 137.5 28.1492 137.652L65.6934 146.575C65.7417 146.586 65.7938 146.594 65.8422 146.594C65.9055 146.594 65.965 146.582 66.0283 146.564C78.6534 142.482 89.8534 137.92 99.312 132.99C99.8069 132.729 99.7362 132.004 99.2041 131.84ZM65.8162 145.328L30.579 136.949C40.1231 133.794 48.8934 130.374 56.7743 126.746C56.8636 126.746 61.4329 124.577 64.6143 122.921L97.3697 132.595C88.3092 137.198 77.7045 141.485 65.8162 145.328Z" fill="#FFAE55"/>
    <path d="M69.0828 142.125L63.159 140.715C62.5525 140.569 62.5153 139.714 63.1107 139.52C65.2502 138.828 67.1442 138.058 68.7367 137.228C68.8781 137.154 69.0456 137.139 69.1981 137.183C70.973 137.708 73.3618 138.259 75.1925 138.798C75.7246 138.955 75.7991 139.684 75.3042 139.944C73.7525 140.752 71.2521 141.522 69.4177 142.114C69.306 142.147 69.187 142.151 69.0828 142.125ZM65.5107 140L69.2018 140.878C70.5191 140.454 71.9777 139.993 73.1795 139.528C71.7283 139.144 70.3293 138.802 69.0902 138.445C68.0111 138.992 66.813 139.513 65.5107 140Z" fill="#F78537"/>
    <path d="M138.28 7.8624C130.504 7.8624 124.204 14.1619 124.204 21.935C124.204 29.7117 130.504 36.0112 138.28 36.0112C146.05 36.0112 152.353 29.7117 152.353 21.935C152.349 14.1657 146.05 7.8624 138.28 7.8624ZM144.171 27.6019C144.044 27.8922 143.698 28.0596 143.352 27.9108L136.866 24.9898C136.643 24.8894 136.502 24.6736 136.502 24.4243V15.4196C136.502 15.0773 136.773 14.7982 137.123 14.7982C137.465 14.7982 137.745 15.0773 137.745 15.4196V24.0261L143.865 26.7796C144.178 26.921 144.312 27.2857 144.171 27.6019Z" fill="#F78537"/>
    <path d="M108.282 141.042C107.686 140.964 107.545 140.167 108.069 139.881C109.8 138.939 116.535 135.274 118.268 134.333C118.566 134.169 118.946 134.281 119.109 134.582C119.273 134.884 119.162 135.259 118.86 135.423C118.224 135.769 110.961 139.721 110.324 140.067L134.079 143.263L137.982 141.057L138.298 141.592L138.566 142.154L134.507 144.446C134.164 144.636 135.712 144.685 108.282 141.042Z" fill="#BCC4CC"/>
    <path d="M107.592 148.941C107.138 148.886 106.9 148.372 107.15 147.989C108.537 145.853 108.474 143.23 107.894 140.74C107.816 140.406 108.024 140.074 108.355 139.996C108.69 139.918 109.021 140.127 109.099 140.458C109.676 142.925 109.78 145.552 108.664 147.825L133.903 150.977L153.36 141.027L153.375 139.431C153.378 139.088 153.657 138.787 154 138.817C154.342 138.82 154.617 139.1 154.614 139.442L154.595 141.41C154.591 141.641 154.461 141.849 154.257 141.957L134.294 152.164C134.033 152.305 135.726 152.454 107.592 148.941Z" fill="#BCC4CC"/>
    <path d="M132.008 142.947C131.759 142.947 133.013 143.624 113.065 132.06C112.868 131.944 112.749 131.732 112.756 131.501L112.961 125.153C112.972 124.781 113.307 124.528 113.601 124.554C113.943 124.566 114.211 124.852 114.2 125.194L114.01 131.174C117.538 133.22 125.992 138.125 132.325 141.793C132.868 142.106 132.637 142.947 132.008 142.947Z" fill="#BCC4CC"/>
    <path d="M131.99 134.661L128.102 132.35C127.808 132.175 127.711 131.795 127.886 131.501C128.061 131.208 128.44 131.111 128.734 131.286L132.623 133.596C132.917 133.771 133.013 134.151 132.839 134.445C132.664 134.739 132.284 134.835 131.99 134.661Z" fill="#BCC4CC"/>
    <path d="M132.466 143.01C132.134 143.01 131.859 142.75 131.844 142.415L131.513 134.236C131.502 133.92 131.729 133.645 132.041 133.596C132.112 133.585 159.178 129.585 159.375 129.585C159.718 129.585 159.997 129.864 159.997 130.207C159.997 130.53 159.751 130.795 159.435 130.824C158.799 130.902 134.185 134.534 132.774 134.742L133.057 141.682L138.151 140.986C138.174 140.982 138.196 140.975 138.214 140.971C138.285 140.96 159.372 138.076 159.305 138.084C159.643 138.039 159.952 138.285 159.993 138.627C160.034 138.966 159.792 139.275 159.45 139.315L138.434 142.192C138.412 142.195 138.389 142.203 138.367 142.207C132.094 143.062 132.548 143.01 132.466 143.01Z" fill="#BCC4CC"/>
    <path d="M159.377 139.401C159.179 139.401 158.986 139.308 158.867 139.133C157.096 136.58 156.925 133.686 158.353 130.519L147.455 124.301C147.157 124.13 147.053 123.754 147.224 123.457C147.391 123.159 147.771 123.055 148.069 123.226L159.466 129.73C159.752 129.894 159.86 130.251 159.711 130.549C158.216 133.526 158.271 136.104 159.883 138.43C160.173 138.843 159.871 139.401 159.377 139.401Z" fill="#BCC4CC"/>
    <path d="M125.702 132.696L110.621 123.807C110.435 123.695 110.32 123.498 110.316 123.278L110.234 116.417C110.231 115.948 110.729 115.635 111.15 115.866L126.621 124.309C126.83 124.421 126.956 124.644 126.945 124.878L126.636 132.186C126.618 132.659 126.1 132.93 125.702 132.696ZM111.555 122.914L125.442 131.103L125.691 125.213L111.488 117.462L111.555 122.914Z" fill="#BCC4CC"/>
    <path d="M125.559 125.116C125.514 124.778 125.753 124.465 126.091 124.421L146.047 121.749L132.919 114.285L111.014 116.986C110.675 117.035 110.367 116.785 110.322 116.447C110.281 116.108 110.523 115.799 110.861 115.755L132.967 113.027C133.098 113.012 133.232 113.038 133.351 113.105L148.257 121.581C148.774 121.875 148.618 122.657 148.034 122.735L126.251 125.648C125.909 125.693 125.604 125.451 125.559 125.116Z" fill="#BCC4CC"/>
    <path d="M126.129 132.767C125.824 132.767 125.56 132.543 125.515 132.234C125.467 131.896 125.705 131.58 126.043 131.535L148.466 128.361C148.815 128.313 149.121 128.551 149.165 128.889C149.214 129.228 148.976 129.544 148.637 129.589C125.095 132.915 126.215 132.767 126.129 132.767Z" fill="#BCC4CC"/>
    <path d="M148.414 129.533C148.269 129.533 148.128 129.485 148.009 129.384C145.445 127.178 145.277 124.566 147.517 121.827C147.733 121.563 148.124 121.522 148.392 121.741C148.656 121.957 148.697 122.348 148.477 122.616C146.662 124.83 146.773 126.683 148.816 128.447C149.255 128.822 148.983 129.533 148.414 129.533Z" fill="#BCC4CC"/>
    <path d="M80.3416 136.305L74.4178 134.895C73.8113 134.75 73.7741 133.894 74.3695 133.701C76.509 133.008 78.3992 132.238 79.9955 131.408C80.1369 131.334 80.3044 131.319 80.4569 131.364C82.2281 131.885 84.6913 132.342 86.5109 132.878C87.043 133.035 87.1174 133.764 86.6225 134.024C85.0634 134.835 82.6262 135.662 80.6802 136.294C80.5648 136.331 80.4457 136.331 80.3416 136.305ZM76.7695 134.184L80.4606 135.062C81.7481 134.646 83.2253 134.147 84.4867 133.634C83.1323 133.306 81.5881 132.979 80.3453 132.629C79.2699 133.172 78.0755 133.693 76.7695 134.184Z" fill="#F78537"/>
    <path d="M61.8715 137.366L49.6333 133.961C49.3022 133.868 49.1124 133.526 49.2017 133.198C49.2947 132.867 49.6371 132.677 49.9645 132.767L62.2026 136.171C62.5338 136.264 62.7236 136.607 62.6343 136.934C62.5413 137.261 62.2064 137.459 61.8715 137.366Z" fill="#F78537"/>
    <path d="M74.0491 131.301L64.3673 128.648C64.0361 128.558 63.8426 128.216 63.9319 127.885C64.0212 127.554 64.3635 127.364 64.6947 127.45L74.3766 130.103C74.7077 130.192 74.9012 130.534 74.8119 130.865C74.7226 131.185 74.3952 131.39 74.0491 131.301Z" fill="#F78537"/>
    <path d="M92.0665 15.4233C92.1111 16.0112 92.3456 16.5284 92.673 16.774C93.1232 17.0977 93.8823 16.9415 94.2618 16.1973C95.1102 14.5229 94.727 12.681 94.046 11.148C93.9902 11.174 93.9418 11.1926 93.8972 11.2112H93.8897C92.9818 13.7861 91.9511 14.0875 92.0665 15.4233Z" fill="#17406C"/>
    <path d="M85.5189 33.7713C85.184 33.6857 84.8491 33.8904 84.7673 34.2215C84.6854 34.5527 84.8864 34.8913 85.2175 34.9731C85.6231 35.0736 87.3347 35.8327 87.7589 36.1452C88.038 36.3499 88.425 36.2866 88.6259 36.015C88.8305 35.7397 88.771 35.3527 88.4957 35.148C87.9264 34.7313 86.0584 33.909 85.5189 33.7713Z" fill="#17406C"/>
    <path d="M72.8556 33.5964C72.8556 33.254 72.5766 32.975 72.2342 32.975C71.5347 32.975 69.477 33.801 68.997 34.1285C68.7142 34.3182 68.6398 34.7052 68.8296 34.988C69.0231 35.2745 69.4101 35.3452 69.6891 35.1554C70.0575 34.9061 71.8473 34.2252 72.2342 34.2178C72.5766 34.2178 72.8556 33.9387 72.8556 33.5964Z" fill="#17406C"/>
    <path d="M71.9819 36.8634C71.1781 36.6587 70.3521 37.1127 70.1437 37.8606C69.9279 38.6234 70.4042 39.4048 71.2116 39.6094C72.0005 39.8103 72.8265 39.3564 73.0386 38.5936C73.247 37.8457 72.7707 37.0643 71.9819 36.8634Z" fill="#17406C"/>
    <path d="M85.5705 38.0057C84.7668 37.801 83.9408 38.255 83.7287 39.0029C83.5129 39.7657 83.9892 40.5471 84.7966 40.7517C85.5854 40.9526 86.4115 40.4987 86.6236 39.7359C86.8357 38.988 86.3594 38.2066 85.5705 38.0057Z" fill="#17406C"/>
    <path d="M79.6127 53.7303C77.4211 52.8559 75.4378 52.4986 73.6629 54.0689C73.235 54.4484 73.5067 55.1554 74.0722 55.1554C74.8611 55.1554 75.1215 53.2726 79.1513 54.8838C79.4676 55.0103 79.8285 54.8577 79.9587 54.5377C80.0853 54.2177 79.9327 53.8605 79.6127 53.7303Z" fill="#17406C"/>
    <path d="M75.9749 48.5433C76.2539 48.7443 76.6409 48.681 76.8418 48.4057C77.0428 48.1303 76.9832 47.7396 76.7042 47.5387C74.9925 46.2922 75.0893 45.6112 75.9265 44.0633L78.5572 39.2038C78.7209 38.9024 78.6093 38.5266 78.3079 38.3629C78.0065 38.1992 77.6307 38.3108 77.4669 38.6122L74.8362 43.4717C74.4753 44.1378 73.9804 45.0531 74.1256 46.0466C74.2893 47.1852 75.2009 47.9778 75.9749 48.5433Z" fill="#17406C"/>
    <path d="M115.234 45.1498C113.931 41.3619 112.957 38.5154 111.394 35.561C117.824 26.1917 112.789 10.1582 100.406 9.47726C97.3547 9.30238 96.3351 10.0391 94.8877 10.7498C95.8477 12.908 95.9296 14.947 95.0849 16.6177C94.1361 18.5154 91.3565 18.3107 91.1333 15.494C91.0775 14.7498 91.3119 13.9759 91.8291 13.2428C92.3389 12.5061 92.7519 11.6801 93.0756 10.7201C92.1826 9.93866 91.5872 8.90796 90.7426 8.05959C85.9984 3.30424 77.7454 4.38331 71.8328 5.70424C66.7277 6.84656 62.244 9.9461 61.9165 15.5647C61.9277 15.4159 59.2821 16.9154 59.07 17.1201C56.7854 19.3898 56.4579 23.2447 59.8812 25.5666C60.9305 26.281 62.1807 26.8763 62.5789 28.1712C63.0068 29.5591 62.6086 31.3266 62.1435 32.6475C60.0151 38.6642 55.9184 43.468 52.2086 48.5433C48.5807 53.5033 46.7612 58.8615 51.4161 62.281C51.6579 62.4596 54.8505 64.4577 54.8505 64.5582C53.8384 64.9973 52.8114 65.4512 51.9779 66.1768C50.2775 67.6652 49.8644 70.2624 50.0542 72.3982C50.1733 73.7452 50.7128 74.8094 51.4793 75.721C51.0514 76.3163 50.6421 76.9117 50.2403 77.5145C45.3212 78.2698 39.1705 81.0791 36.0933 84.9861C33.4068 88.3833 33.0421 92.5694 32.6886 96.614C32.1156 103.021 31.5314 106.634 30.9212 121.767C30.5305 122.921 30.0356 124.409 29.5928 125.872V125.92C28.644 128.517 28.2719 131.111 28.4021 134.281L29.6375 134.065C29.5333 131.096 29.8905 128.651 30.8021 126.221C31.5872 123.096 35.3565 113.12 36.5137 110.084C40.9305 98.4298 40.1491 97.868 46.8096 85.8047C46.8096 85.7973 46.817 85.7935 46.817 85.7861L46.8244 85.7787C50.3928 78.7238 54.3817 73.9201 54.4524 73.8159C57.8458 69.6968 63.4086 67.401 64.5658 67.6391C65.1798 67.7694 65.6896 68.5135 65.7268 69.3321C65.764 70.1582 65.4179 71.0549 64.7668 71.8066C64.097 72.5768 63.1965 73.0977 62.497 73.4624C62.1919 73.6187 62.0765 73.9945 62.2291 74.2996C62.3817 74.5861 62.7426 74.7312 63.0663 74.5601C63.8217 74.1694 64.7668 73.6038 65.5482 72.7666C69.8942 73.7414 68.3686 76.8261 64.6105 79.2894C64.324 79.4754 64.2458 79.8587 64.4319 80.1526C64.6217 80.428 64.9863 80.5247 65.2951 80.3275C66.5491 79.5089 67.5203 78.6605 68.2161 77.8233C69.7342 78.2698 69.723 79.0959 69.7156 79.3749C69.671 81.1052 67.2486 83.3749 65.9128 83.6614C65.15 83.8289 65.3212 84.9973 66.1733 84.8782C67.1965 84.6549 68.5733 83.7135 69.5854 82.4893C70.6756 82.6568 71.3342 82.9917 71.5128 83.4828C72.3389 85.6707 65.6635 92.4168 65.1426 93.3545C65.1351 93.3619 65.1128 93.3991 65.1054 93.4103C61.9947 98.5935 57.3137 119.747 56.0189 125.734C56.4951 125.518 56.9677 125.299 57.4328 125.075C63.8923 95.9033 66.0319 94.5042 66.2142 93.961C66.2328 93.9424 66.2328 93.9163 66.244 93.8977C70.6719 88.7889 73.5072 85.2726 72.6737 83.0438C72.3575 82.2066 71.5947 81.6596 70.3482 81.3694C70.6533 80.8187 70.8579 80.2456 70.9175 79.6763H71.9407C73.9761 82.2363 77.2133 83.8438 80.4728 83.8438H80.5584C84.1863 83.814 87.7658 81.7973 89.6821 78.7015C89.7379 78.6159 89.764 78.5228 89.7677 78.4298C93.3026 77.3991 96.1193 77.1275 98.5863 77.574C100.045 98.6047 99.1593 101.529 99.2635 112.569C99.2635 112.912 99.5351 113.194 99.8775 113.194C99.8849 113.194 99.8849 113.194 99.8849 113.194C100.227 113.194 100.506 112.923 100.506 112.581C100.547 109.637 100.77 93.5963 100.648 93.3321C100.369 85.8047 99.3751 64.1601 97.0682 54.0317C95.8589 49.2094 92.9826 40.7852 91.1147 36.6289C90.6012 35.4382 90.2589 34.4819 90.8989 33.9424C91.5575 33.3842 93.5668 33.2428 94.6756 34.0987C95.7621 37.1684 97.8384 40.9675 99.0737 43.4084C99.2189 43.6875 99.5575 43.8438 99.911 43.6801C100.216 43.5238 100.339 43.1517 100.183 42.8503C98.8654 40.2159 93.9389 31.5573 95.4458 29.5219C95.9668 28.8075 97.3733 29.1684 97.6598 29.1684C97.377 32.0075 101.89 38.9173 102.944 42.2847C103.037 42.5898 103.353 42.8019 103.717 42.694C104.045 42.5935 104.227 42.2475 104.127 41.9201C103.107 38.6605 97.857 30.0987 99.0216 28.9154C99.1147 28.8224 99.7212 28.4242 102.456 29.708C102.214 32.0335 104.491 36.3126 106.69 39.8177C106.873 40.1303 107.297 40.1824 107.539 40.0149C107.829 39.8363 107.918 39.4494 107.736 39.1591C103.394 32.227 103.464 29.7377 103.829 29.4103C103.997 29.2689 104.841 29.254 106.776 30.7014C106.776 30.7089 106.776 30.7089 106.784 30.7126C110.784 36.041 112.011 39.6168 114.039 45.5517C119.587 61.5889 123.863 84.8968 125.083 97.2168C125.113 97.5405 125.381 97.7824 125.697 97.7824C126.054 97.7824 126.352 97.4735 126.318 97.1014C125.25 86.0689 121.381 63.1108 115.234 45.1498ZM45.723 85.2168V85.2242C38.2514 99.2187 40.3984 96.3647 35.3677 109.641C34.4077 112.164 33.3658 114.917 32.3463 117.723C32.9268 105.474 33.5965 100.51 33.9351 96.7256C34.2775 92.8633 34.6235 88.8633 37.0868 85.7489C39.7844 82.3256 45.0384 79.84 49.3212 78.947C48.0226 80.9638 46.8133 83.0661 45.723 85.2168ZM90.1137 32.9935C88.7296 34.1656 89.4737 35.9145 90.1398 37.4661C92.9528 44.3089 94.884 50.3256 95.777 53.9982C94.0579 59.8698 90.5342 64.3312 88.7072 65.6931C88.5323 65.8233 88.4579 66.0354 88.4728 66.2326C88.4728 66.2587 88.4616 66.281 88.4616 66.307L88.804 77.8531C88.804 77.8605 88.8114 77.8642 88.8114 77.8791C88.7482 77.9238 88.6923 77.9796 88.6514 78.0466C86.951 80.7814 83.7844 82.5749 80.5696 82.5973H80.4951C77.4254 82.5973 74.3668 80.9861 72.6068 78.4596C72.7147 78.2475 72.6254 78.7907 73.0979 68.4242C77.1091 69.708 81.3733 69.1982 84.7928 67.2261C85.0905 67.0512 85.1947 66.6754 85.0235 66.3777C84.8486 66.0801 84.4728 65.9796 84.1751 66.147C80.1305 68.4838 74.724 68.4242 70.7314 65.9982C65.7342 62.9582 63.7249 57.1721 64.7482 48.7963C65.4849 42.7647 66.4486 37.2949 67.2858 30.8428C67.7063 30.7014 68.2272 30.7498 68.9119 30.8242C73.1537 31.2968 77.4886 28.1452 78.3444 23.9666C78.9026 26.5712 80.8114 28.8484 83.2858 29.8456C85.7528 30.8503 88.711 30.5452 90.9249 29.0642C90.8579 30.1917 90.9882 31.3266 91.2672 32.4242C90.8021 32.5545 90.404 32.748 90.1137 32.9935Z" fill="#17406C"/>
    <path d="M10.2601 59.4567C10.0964 59.1554 10.2118 58.7795 10.5131 58.6158L15.5401 55.9144C15.8452 55.7544 16.2173 55.8661 16.3811 56.1674C16.5448 56.4688 16.4294 56.8447 16.128 57.0084L11.1011 59.7098C10.7959 59.8698 10.4238 59.7581 10.2601 59.4567Z" fill="#FFB666"/>
    <path d="M11.0482 55.3375C10.8845 55.0361 10.9998 54.6603 11.3012 54.4966L15.5208 52.2268C15.8222 52.0668 16.198 52.1784 16.3617 52.4798C16.5254 52.7812 16.4101 53.157 16.1087 53.3208L11.8891 55.5905C11.5915 55.7505 11.2119 55.6426 11.0482 55.3375Z" fill="#FFB666"/>
    <path d="M146.49 72.0075C146.301 71.721 146.382 71.3378 146.665 71.148L150.822 68.4057L148.459 64.841C148.269 64.5545 148.347 64.1713 148.634 63.9815C148.92 63.7917 149.303 63.8699 149.493 64.1564L152.202 68.2382C152.392 68.5248 152.31 68.9117 152.027 69.0978L147.35 72.1824C147.06 72.3722 146.68 72.2903 146.49 72.0075Z" fill="#5278D8"/>
    <path d="M12.1414 126.106C10.6903 126.106 9.51074 124.927 9.51074 123.475C9.51074 122.024 10.6903 120.845 12.1414 120.845C13.5926 120.845 14.7721 122.024 14.7721 123.475C14.7721 124.927 13.5926 126.106 12.1414 126.106ZM12.1414 122.087C11.3749 122.087 10.7535 122.709 10.7535 123.475C10.7535 124.242 11.3749 124.863 12.1414 124.863C12.908 124.863 13.5293 124.242 13.5293 123.475C13.5293 122.713 12.908 122.087 12.1414 122.087Z" fill="#BCC4CC"/>
  </g>
  <defs>
    <clipPath id="clip0_226_14060">
      <rect width="160" height="156.949" fill="white"/>
    </clipPath>
  </defs>
</svg>