<svg xmlns="http://www.w3.org/2000/svg" width="119" height="119" viewBox="0 0 119 119" fill="none">
  <g clipPath="url(#clip0_226_12034)">
    <path d="M107.456 23.5205L98.9465 109.682C98.4539 114.658 94.2474 118.471 89.2494 118.471H21.2561C15.4887 118.471 10.9861 113.496 11.559 107.767L20.0716 21.6055C20.5642 16.6268 24.7514 12.8161 29.7687 12.8161H97.762C103.507 12.8161 108.01 17.7947 107.456 23.5205Z" fill="#17406C"/>
    <path d="M102.209 23.5205L93.6994 109.682C93.2068 114.658 89.0003 118.471 84.0023 118.471H16.009C10.2417 118.471 5.73904 113.496 6.3119 107.767L14.8245 21.6054C15.3172 16.6268 19.5043 12.816 24.5217 12.816H92.5149C98.2601 12.816 102.763 17.7946 102.209 23.5205Z" fill="#1C89C1"/>
    <path d="M14.2736 112.61C13.5651 112.61 13.1029 112.264 12.84 111.976C12.5799 111.688 12.2838 111.199 12.353 110.501L21.2503 20.4154C21.3499 19.4247 22.1746 18.6747 23.1709 18.6747H94.2527C94.9473 18.6747 95.4039 19.0179 95.6668 19.3085C95.9353 19.6018 96.2369 20.1027 96.1677 20.8139L87.2732 110.872C87.1763 111.846 86.3322 112.613 85.3526 112.613H14.2736V112.61Z" fill="white"/>
    <path d="M74.5608 11.9775H44.4482L47.6474 3.40955C48.4112 1.35888 50.3706 6.10352e-05 52.5596 6.10352e-05H66.4522C68.6412 6.10352e-05 70.5978 1.35888 71.3644 3.40955L74.5608 11.9775Z" fill="#51504F"/>
    <path d="M74.5557 11.983H44.4404L45.921 8.02278C48.3259 8.42959 51.0103 8.65099 53.8442 8.65099C61.8227 8.65099 68.6888 6.85492 71.6859 4.28397L74.5557 11.983Z" fill="#3A3A3A"/>
    <path d="M82.9765 12.8354V17.8141C82.9765 23.4597 78.4047 28.0121 72.7951 28.0121H46.2166C40.607 28.0121 36.0352 23.4597 36.0352 17.8141V12.8354C36.0352 10.8927 37.5905 9.3374 39.4972 9.3374H79.4785C81.4212 9.3374 82.9765 10.8927 82.9765 12.8354Z" fill="#51504F"/>
    <path d="M77.6282 21.9791C77.6282 22.7733 69.5223 23.4403 59.5069 23.4403C49.4943 23.4403 41.3857 22.7733 41.3857 21.9791C41.3857 21.1627 49.4943 20.4985 59.5069 20.4985C69.5223 20.4985 77.6282 21.1655 77.6282 21.9791Z" fill="#3A3A3A"/>
    <path d="M59.5069 16.851C69.515 16.851 77.6282 16.1968 77.6282 15.3898C77.6282 14.5828 69.515 13.9286 59.5069 13.9286C49.4989 13.9286 41.3857 14.5828 41.3857 15.3898C41.3857 16.1968 49.4989 16.851 59.5069 16.851Z" fill="#3A3A3A"/>
    <path d="M19.6652 105.83C19.5462 105.83 19.4687 105.772 19.4244 105.725C19.3801 105.677 19.3303 105.594 19.3442 105.478L20.833 90.3984C20.8496 90.2324 20.988 90.1078 21.1541 90.1078H37.6923C37.8085 90.1078 37.886 90.166 37.9303 90.213C37.9746 90.2628 38.0272 90.3458 38.0133 90.4648L36.5244 105.542C36.5078 105.705 36.3667 105.832 36.2034 105.832H19.6652V105.83Z" fill="#AEC46E"/>
    <path d="M37.304 97.6464L36.5208 105.542C36.5069 105.691 36.3713 105.827 36.2053 105.827H19.6587C19.5397 105.827 19.4623 105.766 19.418 105.722C19.3737 105.678 19.3267 105.586 19.3433 105.481L19.8857 99.9766C21.8423 100.668 24.0811 101.059 26.475 101.059C30.9112 101.061 34.852 99.722 37.304 97.6464Z" fill="#617F4D"/>
    <path d="M73.4329 97.7377C76.5242 97.9978 79.6126 98.3493 82.6928 98.9111C79.5822 99.2819 76.4799 99.4258 73.3776 99.4978C70.2753 99.5836 67.1564 99.531 64.0596 99.4674C60.9656 99.3428 57.8688 99.2017 54.7804 98.9249C51.6891 98.6648 48.6007 98.3272 45.5205 97.7654C48.6311 97.3945 51.7362 97.234 54.8357 97.1648C57.938 97.0791 61.0348 97.1316 64.1316 97.2119C67.2256 97.3198 70.3445 97.461 73.4329 97.7377Z" fill="#D1DAFE"/>
    <path d="M54.9806 92.5626C51.8893 92.3024 48.8009 91.9648 45.7207 91.403C48.8313 91.0322 51.9336 90.8883 55.0359 90.8163C58.1382 90.7305 61.235 90.7831 64.3318 90.8468C67.4258 90.9575 70.5447 91.1125 73.6331 91.3754C76.7244 91.6355 79.8128 91.987 82.893 92.5488C79.7824 92.9196 76.6801 93.0801 73.5778 93.1493C70.4782 93.2185 67.3566 93.1825 64.2598 93.1022C61.163 92.9805 58.069 92.8393 54.9806 92.5626Z" fill="#D1DAFE"/>
    <path d="M63.5646 103.798C65.5848 104.025 67.5801 104.33 69.5921 104.858C67.5497 105.276 65.5405 105.456 63.5092 105.558C61.4779 105.677 59.4494 105.675 57.4236 105.611C55.3979 105.547 53.3749 105.426 51.3546 105.182C49.3344 104.955 47.3391 104.651 45.3271 104.108C47.3668 103.704 49.3787 103.524 51.41 103.422C53.4413 103.303 55.4698 103.306 57.4956 103.369C59.5214 103.433 61.5444 103.555 63.5646 103.798Z" fill="#D1DAFE"/>
    <path d="M33.3916 94.1069C32.8574 95.7231 31.994 96.9905 31.0586 98.2221C30.1038 99.3982 29.019 100.464 27.8069 101.402L27.5301 101.604C27.0901 101.953 26.4453 101.881 26.0966 101.421L26.0772 101.402C25.2498 100.262 24.461 99.0689 23.9629 97.58C25.009 97.9121 25.8918 98.3881 26.7193 98.9222C27.4914 98.0034 28.3354 97.176 29.2736 96.4232C30.4885 95.5044 31.7754 94.6216 33.3916 94.1069Z" fill="white"/>
    <path d="M26.1213 33.8597C26.0078 35.0967 25.0724 36.0874 23.8548 36.3365C23.3206 36.45 22.8059 36.5468 22.2746 36.6243V38.9296C22.2746 39.9397 21.0541 40.4738 20.3318 39.7488L18.0265 37.5016C17.7968 37.2913 17.4924 37.1778 17.1686 37.1972C13.0147 37.4435 8.82478 37.1031 4.63211 36.2646C3.5279 36.0542 2.66999 35.1604 2.49841 34.0561C1.62113 28.7593 1.65988 23.5952 2.47904 18.528C2.66999 17.3851 3.58325 16.4691 4.7096 16.2809C10.9585 15.232 17.3402 15.2126 23.8382 16.2615C25.0752 16.4524 26.03 17.4819 26.1434 18.719C26.5585 23.6672 26.5586 28.715 26.1213 33.8597Z" fill="#E0860E"/>
    <path d="M28.4807 34.0838C28.3672 35.3209 27.4318 36.3116 26.2141 36.5607C25.68 36.6742 25.1653 36.771 24.6339 36.8485V39.1538C24.6339 40.1639 23.4135 40.698 22.6912 39.973L20.3859 37.7258C20.1562 37.5155 19.8518 37.402 19.528 37.4214C15.3741 37.6677 11.1842 37.3273 6.99148 36.4887C5.88727 36.2784 5.02937 35.3845 4.85779 34.2803C3.98051 28.9834 4.01925 23.8194 4.83841 18.7522C5.02937 17.6093 5.94262 16.6932 7.06897 16.505C13.3179 15.4562 19.6996 15.4368 26.1975 16.4857C27.4346 16.6766 28.3893 17.7061 28.5028 18.9432C28.9207 23.8913 28.9207 28.9392 28.4807 34.0838Z" fill="#FBAD3E"/>
    <path d="M28.8045 26.5979C28.8045 29.0748 28.7104 31.5517 28.4807 34.0839C28.3672 35.3209 27.4318 36.3117 26.2142 36.5607C25.68 36.6742 25.1653 36.771 24.634 36.8485V39.1538C24.634 40.1639 23.4135 40.698 22.6912 39.973L20.3859 37.7258C20.1562 37.5155 19.8518 37.402 19.528 37.4214C15.3741 37.6677 11.1842 37.3273 6.99151 36.4888C5.8873 36.2784 5.02939 35.3846 4.85781 34.2803C4.72497 33.4224 4.59214 32.5645 4.51465 31.726C7.10497 32.8883 10.1353 33.5359 13.3926 33.5359C20.1562 33.5304 26.0232 30.7131 28.8045 26.5979Z" fill="#FA990E"/>
    <path d="M8.55957 20.9883C9.88517 20.5815 11.2108 20.3684 12.5364 20.2245C13.862 20.0695 15.1876 20.0114 16.5132 20.0058C17.8388 20.0058 19.1644 20.0667 20.49 20.2217C21.8156 20.3656 23.1412 20.5787 24.4668 20.9883C23.1412 21.3951 21.8156 21.6109 20.49 21.7549C19.1644 21.9098 17.8388 21.9679 16.5132 21.9707C15.1876 21.9679 13.862 21.9098 12.5364 21.7521C11.2108 21.6054 9.88517 21.3923 8.55957 20.9883Z" fill="white"/>
    <path d="M8.55957 26.0333C9.88517 25.6265 11.2108 25.4134 12.5364 25.2695C13.862 25.1145 15.1876 25.0564 16.5132 25.0509C17.8388 25.0509 19.1644 25.1118 20.49 25.2667C21.8156 25.4106 23.1412 25.6237 24.4668 26.0333C23.1412 26.4401 21.8156 26.656 20.49 26.7999C19.1644 26.9549 17.8388 27.013 16.5132 27.0158C15.1876 27.013 13.862 26.9549 12.5364 26.7971C11.2108 26.6532 9.88517 26.4401 8.55957 26.0333Z" fill="white"/>
    <path d="M8.55957 31.0811C9.88517 30.6743 11.2108 30.4612 12.5364 30.3173C13.862 30.1623 15.1876 30.1042 16.5132 30.0987C17.8388 30.0987 19.1644 30.1595 20.49 30.3145C21.8156 30.4584 23.1412 30.6715 24.4668 31.0811C23.1412 31.4879 21.8156 31.7038 20.49 31.8477C19.1644 32.0027 17.8388 32.0608 16.5132 32.0635C15.1876 32.0608 13.862 32.0027 12.5364 31.8449C11.2108 31.6982 9.88517 31.4879 8.55957 31.0811Z" fill="white"/>
    <path d="M21.7208 85.727C21.6018 85.727 21.5244 85.6689 21.4801 85.6219C21.4358 85.5748 21.386 85.4918 21.3998 85.3756L22.8887 70.2958C22.9053 70.1297 23.0437 70.0052 23.2097 70.0052H39.748C39.8642 70.0052 39.9417 70.0633 39.986 70.1103C40.0302 70.1602 40.0828 70.2432 40.069 70.3622L38.5801 85.4392C38.5635 85.6025 38.4224 85.7298 38.2591 85.7298H21.7208V85.727Z" fill="#AEC46E"/>
    <path d="M39.3586 77.5465L38.5755 85.442C38.5616 85.5915 38.426 85.7271 38.26 85.7271H21.7134C21.5944 85.7271 21.5169 85.6662 21.4727 85.6219C21.4284 85.5776 21.3813 85.4863 21.3979 85.3811L21.9404 79.8767C23.8969 80.5686 26.1358 80.9588 28.5296 80.9588C32.9659 80.9588 36.9067 79.6221 39.3586 77.5465Z" fill="#617F4D"/>
    <path d="M75.4915 77.6379C78.5827 77.898 81.6712 78.2495 84.7514 78.8113C81.6408 79.1821 78.5385 79.3261 75.4362 79.398C72.3339 79.4838 69.215 79.4312 66.1182 79.3676C63.0242 79.243 59.9274 79.1019 56.839 78.8251C53.7477 78.565 50.6593 78.2274 47.5791 77.6656C50.6897 77.2947 53.7948 77.1342 56.8943 77.065C59.9966 76.9793 63.0934 77.0318 66.1901 77.1121C69.2841 77.22 72.4003 77.3612 75.4915 77.6379Z" fill="#D1DAFE"/>
    <path d="M57.0353 72.4628C53.944 72.2027 50.8556 71.865 47.7754 71.3032C50.886 70.9324 53.9883 70.7885 57.0906 70.7165C60.1929 70.6308 63.2897 70.6833 66.3864 70.747C69.4804 70.8577 72.5993 71.0127 75.6878 71.2756C78.779 71.5357 81.8675 71.8872 84.9477 72.449C81.8371 72.8198 78.7348 72.9803 75.6325 73.0495C72.5329 73.1187 69.4113 73.0827 66.3145 73.0024C63.2205 72.8779 60.1237 72.7395 57.0353 72.4628Z" fill="#D1DAFE"/>
    <path d="M65.6203 83.6986C67.6405 83.9255 69.6358 84.2299 71.6477 84.7585C69.6054 85.1764 67.5962 85.3563 65.5649 85.4587C63.5336 85.5777 61.5051 85.5749 59.4793 85.5113C57.4535 85.4476 55.4305 85.3258 53.4103 85.0823C51.3901 84.8554 49.3947 84.551 47.3828 84.0085C49.4224 83.6045 51.4343 83.4246 53.4657 83.3222C55.497 83.2032 57.5255 83.206 59.5513 83.2696C61.577 83.3333 63.6 83.455 65.6203 83.6986Z" fill="#D1DAFE"/>
    <path d="M35.4463 74.007C34.9121 75.6231 34.0487 76.8906 33.1133 78.1221C32.1585 79.2983 31.0737 80.3638 29.8616 81.3019L29.5848 81.504C29.1448 81.8527 28.5 81.7807 28.1513 81.3213L28.1319 81.3019C27.3044 80.1618 26.5157 78.969 26.0176 77.4801C27.0637 77.8122 27.9465 78.2882 28.774 78.8223C29.5461 77.9035 30.3901 77.076 31.3283 76.3233C32.5432 75.4017 33.8301 74.5217 35.4463 74.007Z" fill="white"/>
    <path d="M23.5089 65.6437C23.3899 65.6437 23.3124 65.5856 23.2682 65.5386C23.2239 65.4915 23.1741 65.4085 23.1879 65.2923L24.6768 50.2125C24.6934 50.0464 24.8318 49.9219 24.9978 49.9219H41.536C41.6523 49.9219 41.7298 49.98 41.774 50.0271C41.8183 50.0769 41.8709 50.1599 41.8571 50.2789L40.3682 65.3559C40.3516 65.5192 40.2104 65.6465 40.0472 65.6465H23.5089V65.6437Z" fill="#AEC46E"/>
    <path d="M41.1487 57.4604L40.3655 65.3559C40.3517 65.5054 40.2161 65.641 40.05 65.641H23.5035C23.3845 65.641 23.307 65.5801 23.2627 65.5358C23.2184 65.4915 23.1714 65.4002 23.188 65.295L23.7304 59.7906C25.687 60.4825 27.9258 60.8727 30.3197 60.8727C34.7559 60.8754 38.6967 59.536 41.1487 57.4604Z" fill="#617F4D"/>
    <path d="M77.2796 57.5517C80.3708 57.8118 83.4593 58.1633 86.5395 58.7251C83.4289 59.0959 80.3266 59.2398 77.2243 59.3118C74.122 59.3976 71.003 59.345 67.9063 59.2814C64.8123 59.1568 61.7155 59.0157 58.627 58.7389C55.5358 58.4788 52.4474 58.1412 49.3672 57.5794C52.4778 57.2085 55.5829 57.048 58.6824 56.9788C61.7847 56.893 64.8815 56.9456 67.9782 57.0259C71.0722 57.1338 74.1884 57.275 77.2796 57.5517Z" fill="#D1DAFE"/>
    <path d="M58.8243 52.3766C55.7331 52.1164 52.6446 51.7788 49.5645 51.217C52.6751 50.8462 55.7774 50.7023 58.8797 50.6303C61.982 50.5445 65.0787 50.5971 68.1755 50.6608C71.2695 50.7715 74.3884 50.9264 77.4769 51.1894C80.5681 51.4495 83.6566 51.801 86.7367 52.3627C83.6261 52.7336 80.5238 52.8941 77.4215 52.9633C74.322 53.0325 71.2003 52.9965 68.1035 52.9162C65.0095 52.7945 61.9128 52.6533 58.8243 52.3766Z" fill="#D1DAFE"/>
    <path d="M67.4083 63.6124C69.4286 63.8393 71.4239 64.1437 73.4358 64.6723C71.3935 65.0902 69.3843 65.2701 67.353 65.3725C65.3217 65.4915 63.2932 65.4887 61.2674 65.425C59.2416 65.3614 57.2186 65.2396 55.1984 64.9961C53.1782 64.7692 51.1828 64.4647 49.1709 63.9223C51.2105 63.5183 53.2224 63.3384 55.2537 63.236C57.285 63.117 59.3136 63.1198 61.3393 63.1834C63.3651 63.2471 65.3881 63.3688 67.4083 63.6124Z" fill="#D1DAFE"/>
    <path d="M37.2353 53.9208C36.7012 55.537 35.8378 56.8045 34.9024 58.036C33.9476 59.2122 32.8628 60.2776 31.6506 61.2158L31.3739 61.4178C30.9338 61.7665 30.289 61.6945 29.9403 61.2352L29.921 61.2158C29.0935 60.0756 28.3048 58.8828 27.8066 57.3939C28.8527 57.726 29.7355 58.202 30.563 58.7362C31.3351 57.8174 32.1792 56.9899 33.1174 56.2372C34.3323 55.3184 35.6191 54.4356 37.2353 53.9208Z" fill="white"/>
    <path d="M47.6446 32.617C47.6446 32.3071 47.5339 32.0414 47.3181 31.8283C47.1022 31.6125 46.8365 31.5018 46.5266 31.5018H36.8156C36.5029 31.5018 36.24 31.6125 36.0297 31.8311C35.8249 32.047 35.7197 32.3126 35.7197 32.617C35.7197 32.927 35.8249 33.1871 36.0352 33.3975C36.2455 33.605 36.5085 33.713 36.8156 33.713H40.5157V44.6084C40.5157 44.9294 40.6292 45.2061 40.8506 45.4303C41.072 45.6517 41.3487 45.7652 41.6697 45.7652C41.988 45.7652 42.2675 45.6545 42.4972 45.4331C42.7297 45.2117 42.8459 44.9322 42.8459 44.6084V33.713H46.5266C46.8338 33.713 47.0967 33.6078 47.3125 33.403C47.5367 33.1927 47.6446 32.927 47.6446 32.617Z" fill="#4269C4"/>
    <path d="M54.614 35.6862C53.8696 35.2102 52.9813 34.9694 51.9684 34.9694C50.8891 34.9694 49.9647 35.2268 49.2175 35.7387C48.4759 36.248 47.9168 36.9232 47.5598 37.7479C47.2084 38.5588 47.0312 39.4554 47.0312 40.413C47.0312 42.1205 47.5072 43.4682 48.4454 44.4202C49.3863 45.375 50.7009 45.8593 52.3586 45.8593C53.1611 45.8593 53.8281 45.7846 54.3456 45.6323C54.8576 45.4829 55.3834 45.2587 55.9092 44.9626C56.4433 44.6527 56.554 44.268 56.554 43.9996C56.554 43.6979 56.4461 43.4461 56.2302 43.2496C55.8926 42.9424 55.3917 42.8843 55.0209 43.0697C54.65 43.2551 54.2653 43.399 53.8779 43.4959C53.4932 43.5955 53.0338 43.6453 52.5136 43.6453C51.5616 43.6453 50.8171 43.4129 50.2996 42.9535C49.8485 42.5522 49.5552 42.0015 49.4251 41.3124H55.7127C56.0614 41.3124 56.3492 41.1989 56.5651 40.9747C56.7782 40.7533 56.8861 40.4766 56.8861 40.1583C56.8861 39.2396 56.6924 38.3733 56.3133 37.5902C55.9286 36.8042 55.3557 36.1622 54.614 35.6862ZM54.5476 39.3198H49.4057C49.4666 38.8632 49.605 38.4702 49.8181 38.1519C50.0727 37.7673 50.3965 37.4822 50.7784 37.3023C51.5588 36.937 52.3752 36.937 53.1556 37.3023C53.5375 37.4822 53.8641 37.7673 54.127 38.1519C54.3456 38.473 54.4867 38.8632 54.5476 39.3198Z" fill="#4269C4"/>
    <path d="M64.2761 39.9342C63.7862 39.7405 63.1442 39.544 62.3638 39.3447C61.6221 39.1814 61.0714 39.0126 60.731 38.8411C60.4598 38.7054 60.338 38.5173 60.338 38.2322C60.338 37.925 60.4874 37.687 60.8057 37.4822C61.1544 37.2581 61.6581 37.1446 62.3029 37.1446C63.0003 37.1446 63.7198 37.2581 64.4587 37.4878C64.586 37.521 64.6912 37.5348 64.7797 37.5348C65.0786 37.5348 65.3332 37.4269 65.5353 37.2166C65.7345 37.009 65.8369 36.7599 65.8369 36.4777C65.8369 36.2673 65.7705 36.0625 65.6432 35.8716C65.5076 35.6751 65.3139 35.5395 65.0897 35.4758C64.1792 35.141 63.194 34.9722 62.1673 34.9722C60.8804 34.9722 59.8703 35.2821 59.1674 35.8993C58.4506 36.5247 58.0881 37.3411 58.0881 38.3318C58.0881 39.0486 58.2929 39.6408 58.6969 40.0864C59.0816 40.5126 59.5493 40.8364 60.0889 41.0467C60.6009 41.246 61.254 41.4397 62.0206 41.6223C62.7567 41.8133 63.2881 41.9849 63.6008 42.1315C63.8997 42.2727 63.9384 42.436 63.9384 42.5633C63.9384 43.0393 63.7419 43.6702 62.051 43.6702C61.5557 43.6702 61.1073 43.6204 60.7144 43.5208C60.3186 43.4212 59.9118 43.2828 59.5105 43.1057C59.065 42.9064 58.5917 43.0033 58.2956 43.3271C58.1047 43.5346 58.0078 43.7837 58.0078 44.0604C58.0078 44.423 58.1628 44.7246 58.4561 44.9294L58.481 44.946C59.5825 45.5493 60.8223 45.8565 62.1645 45.8565C63.4209 45.8565 64.4172 45.5604 65.1201 44.9737C65.8397 44.3759 66.205 43.6094 66.205 42.6933C66.205 41.9517 66.0085 41.3456 65.621 40.8945C65.253 40.4628 64.7991 40.139 64.2761 39.9342Z" fill="#4269C4"/>
    <path d="M73.7122 43.853C73.5157 43.6676 73.286 43.5735 73.0314 43.5735C72.9235 43.5735 72.8294 43.5818 72.7464 43.5984L72.5637 43.6426C72.0158 43.8059 71.4374 43.7727 71.0942 43.579C70.9531 43.4987 70.8728 43.2414 70.8728 42.8539V37.2416H72.799C73.0979 37.2416 73.3497 37.1364 73.5462 36.9316C73.7399 36.7296 73.8368 36.486 73.8368 36.2038C73.8368 35.9076 73.7371 35.6586 73.5406 35.4621C73.3442 35.2656 73.0951 35.166 72.799 35.166H70.8728V33.8846C70.8728 33.7131 70.8119 33.5526 70.6929 33.4225C70.4439 33.154 70.0371 33.1347 69.6994 33.4723L67.0704 36.046C66.8379 36.2287 66.7881 36.4473 66.7881 36.5967C66.7881 36.7766 66.8545 36.9344 66.9763 37.0561C67.098 37.1779 67.2585 37.2443 67.4357 37.2443H68.5426V43.0117C68.5426 44.8769 69.6219 45.8649 71.6671 45.8649C72.2759 45.8649 72.8599 45.7376 73.4133 45.483C73.9059 45.2256 74.0111 44.8354 74.0111 44.5531C74.0111 44.2819 73.9059 44.0384 73.7122 43.853Z" fill="#4269C4"/>
    <path d="M106.318 96.3124L106.313 96.3152C104.987 97.0154 104.987 98.9166 106.315 99.614L106.318 99.6168C109.62 101.355 111.687 104.778 111.687 108.509V113.352H87.624V108.522C87.624 104.784 89.6941 101.355 93.0039 99.614C94.3323 98.9166 94.3323 97.0154 93.0067 96.3152L93.0012 96.3124C89.6941 94.5662 87.6268 91.1345 87.6268 87.3957V82.5804H111.69V87.4068C111.69 91.1428 109.622 94.5689 106.318 96.3124Z" fill="#FBAD3E"/>
    <path d="M104.187 103.674L104.041 103.594C102.001 102.456 100.742 100.317 100.739 97.9729C100.736 95.5736 102.054 93.3873 104.182 92.2637C105.945 91.3338 107.046 89.535 107.099 87.5508C102.845 85.0684 96.5161 89.726 92.2183 87.5508C92.2736 89.535 93.3778 91.3311 95.1462 92.2665C97.2688 93.3873 98.5834 95.5736 98.5834 97.9702C98.5806 100.37 97.2633 102.553 95.1407 103.668C93.3335 104.62 92.21 106.48 92.21 108.522V113.352H107.11V108.509C107.107 106.475 105.989 104.62 104.187 103.674Z" fill="#D1DAFE"/>
    <path d="M114.49 79.1736C114.601 80.0121 114.582 80.8783 114.454 81.7694C114.346 82.5277 113.749 83.1366 112.985 83.2113C104.087 84.0692 95.1901 84.0692 86.2928 83.214C85.5151 83.1393 84.9035 82.5139 84.8205 81.739C84.7264 80.8977 84.7292 80.0536 84.8205 79.2068C84.9063 78.4291 85.5234 77.8037 86.3039 77.7317C95.2953 76.9209 104.201 76.9043 113.012 77.7345C113.779 77.8037 114.388 78.4098 114.49 79.1736Z" fill="#B53016"/>
    <path d="M114.49 114.135C114.601 114.973 114.582 115.839 114.454 116.731C114.346 117.489 113.749 118.098 112.985 118.172C104.087 119.03 95.1901 119.03 86.2928 118.175C85.5151 118.1 84.9035 117.475 84.8205 116.7C84.7264 115.859 84.7292 115.015 84.8205 114.168C84.9063 113.39 85.5234 112.765 86.3039 112.693C95.2953 111.882 104.201 111.865 113.012 112.696C113.779 112.768 114.388 113.374 114.49 114.135Z" fill="#B53016"/>
    <path d="M118.026 12.7608L90.3738 57.2861L77.5273 49.2965L105.18 4.77393C106.176 3.17158 108.279 2.67621 109.879 3.66972L116.927 8.05334C118.53 9.04962 119.02 11.1612 118.026 12.7608Z" fill="#FBAD3E"/>
    <path d="M90.3732 57.2861L82.212 61.7943L79.987 63.023C78.5922 63.7951 76.8958 62.7408 76.9733 61.1495L77.0923 58.6117L77.5268 49.2993L90.3732 57.2861Z" fill="#FFCECF"/>
    <path d="M82.212 61.7942L79.987 63.023C78.5922 63.7951 76.8958 62.7407 76.9733 61.1494L77.0923 58.6117C78.1577 58.4069 79.2924 58.5895 80.2748 59.2011C81.26 59.8127 81.9242 60.7481 82.212 61.7942Z" fill="#51504F"/>
    <path d="M109.632 15.6654L106.313 13.6017L82.2779 52.2517L85.5962 54.3153L109.632 15.6654Z" fill="#FA990E"/>
    <path d="M113.517 20.0114L118.026 12.7635C119.022 11.1611 118.529 9.04958 116.927 8.05607L109.878 3.67244C108.276 2.67616 106.175 3.1743 105.179 4.77665L100.671 12.0246L113.517 20.0114Z" fill="white"/>
    <path d="M115.113 17.4405L118.024 12.7607C119.021 11.1584 118.528 9.0468 116.926 8.05329L109.877 3.66966C108.275 2.67338 106.174 3.17152 105.178 4.77387L102.267 9.45362L115.113 17.4405Z" fill="#51504F"/>
    <path d="M30.261 115.502C30.07 117.035 28.8441 118.236 27.3109 118.402C19.5621 119.224 11.5835 119.174 3.40298 118.388C1.79509 118.236 0.516535 116.933 0.389233 115.325C-0.131046 108.866 -0.131046 102.381 0.389233 95.8725C0.516535 94.2508 1.82 92.9473 3.44172 92.8061C11.3704 92.1364 19.2964 92.1364 27.2251 92.82C28.7943 92.9473 30.0866 94.176 30.2638 95.7452C31.0359 102.346 31.047 108.929 30.261 115.502Z" fill="#4269C4"/>
    <path d="M30.2616 95.748C30.6186 98.759 20.8302 106.627 16.9669 109.602C16.0591 110.302 14.8 110.305 13.8895 109.613C10.0095 106.66 0.154648 98.8558 0.389881 95.8753C0.517183 94.2536 1.82065 92.9501 3.44237 92.809C11.3711 92.1393 19.297 92.1393 27.2258 92.8228C28.7949 92.9501 30.0845 94.1761 30.2616 95.748Z" fill="#255299"/>
  </g>
  <defs>
    <clipPath id="clip0_226_12034">
      <rect width="118.538" height="119" fill="white"/>
    </clipPath>
  </defs>
</svg>